<?xml version="1.0" standalone="no"?>
<!DOCTYPE svg PUBLIC "-//W3C//DTD SVG 20010904//EN"
 "http://www.w3.org/TR/2001/REC-SVG-20010904/DTD/svg10.dtd">
<svg version="1.0" xmlns="http://www.w3.org/2000/svg"
 width="320.000000pt" height="331.000000pt" viewBox="0 0 320.000000 331.000000"
 preserveAspectRatio="xMidYMid meet">

<g transform="translate(0.000000,331.000000) scale(0.100000,-0.100000)"
fill="#000000" stroke="none">
<path d="M1561 2824 c-596 -211 -1085 -385 -1087 -387 -2 -2 23 -100 56 -218
l60 -214 0 -450 0 -451 -71 -11 c-99 -15 -190 -63 -264 -138 -194 -197 -193
-494 1 -691 177 -180 434 -192 629 -30 80 67 111 76 265 78 103 2 167 -3 270
-21 231 -39 242 -41 360 -57 80 -11 209 -16 430 -17 308 -2 316 -1 362 21 26
12 50 22 54 22 15 0 146 114 135 118 -6 2 -22 -3 -34 -12 -172 -124 -157 -121
-530 -112 -270 6 -408 17 -567 45 -62 11 -129 22 -280 46 -86 14 -127 15 -228
7 -68 -6 -129 -15 -137 -22 -9 -7 -2 13 15 45 17 32 35 77 41 101 l11 44 999
0 999 0 0 750 0 750 -373 0 -372 0 -90 -180 -90 -180 -203 0 -204 0 45 83 c24
45 68 126 96 180 l53 97 -169 0 -168 0 -88 -170 -88 -170 -201 0 -200 0 47 88
c26 48 68 124 92 169 l45 83 -259 2 -258 3 1078 380 c594 209 1083 383 1088
386 5 3 -4 34 -20 70 -15 35 -57 128 -91 207 -34 78 -65 142 -69 141 -3 0
-494 -173 -1090 -385z m1031 280 l78 -26 26 -86 c15 -48 29 -93 32 -100 2 -7
-82 30 -188 83 -106 53 -190 98 -187 101 4 4 138 49 157 53 3 1 40 -11 82 -25z
m-502 -270 c113 -47 238 -99 279 -116 50 -21 69 -33 59 -39 -7 -4 -101 -42
-209 -83 l-195 -76 -293 120 c-162 66 -296 121 -298 124 -3 3 425 152 447 155
3 1 97 -38 210 -85z m-795 -344 c165 -60 301 -110 304 -110 17 0 -30 -19 -210
-85 l-203 -75 -314 116 c-172 64 -311 119 -308 121 4 4 411 139 427 142 3 1
140 -48 304 -109z m-445 -488 c0 -4 -16 -46 -36 -92 -19 -47 -49 -118 -66
-157 l-30 -73 -54 0 -54 0 0 112 0 111 41 54 41 53 79 0 c44 0 79 -4 79 -8z
m2147 -4 c-3 -7 -38 -84 -77 -170 l-73 -158 -188 0 -189 0 85 170 85 170 181
0 c141 0 180 -3 176 -12z m-972 -833 c0 -20 -8 -20 -449 -23 -272 -1 -454 2
-459 7 -5 5 -7 17 -4 25 6 15 55 16 459 14 445 -3 453 -3 453 -23z m478 -2
c-57 -2 -149 -2 -205 0 -57 1 -11 3 102 3 113 0 159 -2 103 -3z m-1865 -209
c28 -19 52 -65 52 -100 0 -38 -59 -94 -100 -94 -23 0 -41 9 -66 34 -47 47 -47
95 0 142 38 38 77 44 114 18z m270 -188 c30 -16 62 -65 62 -94 0 -56 -56 -112
-112 -112 -29 0 -78 32 -94 62 -49 88 56 193 144 144z m-550 -12 c28 -19 52
-65 52 -98 0 -34 -62 -96 -96 -96 -33 0 -79 24 -98 52 -27 39 -20 83 19 123
40 39 84 46 123 19z m252 -104 c11 -11 20 -29 20 -40 0 -26 -34 -60 -60 -60
-11 0 -29 9 -40 20 -11 11 -20 29 -20 40 0 11 9 29 20 40 11 11 29 20 40 20
11 0 29 -9 40 -20z m-152 -208 c35 -33 47 -69 38 -109 -9 -35 -62 -83 -93 -83
-77 0 -135 87 -102 153 34 68 107 86 157 39z m310 0 c35 -33 47 -69 38 -109
-9 -35 -62 -83 -93 -83 -77 0 -135 87 -102 153 34 68 107 86 157 39z"/>
</g>
</svg>
